<svg width="119" height="40" viewBox="0 0 119 40" fill="none" xmlns="http://www.w3.org/2000/svg">
<path d="M1.37762 6.48077H11.1549V9.84066H5.0735V16.3924H9.84454V19.7523H5.0735V30H1.37762V6.48077ZM18.2695 30.336C16.4551 30.336 15.0664 29.8208 14.1032 28.7904C13.14 27.7601 12.6584 26.3041 12.6584 24.4226V12.0582C12.6584 10.1766 13.14 8.7207 14.1032 7.69033C15.0664 6.65996 16.4551 6.14478 18.2695 6.14478C20.0838 6.14478 21.4726 6.65996 22.4357 7.69033C23.3989 8.7207 23.8805 10.1766 23.8805 12.0582V24.4226C23.8805 26.3041 23.3989 27.7601 22.4357 28.7904C21.4726 29.8208 20.0838 30.336 18.2695 30.336ZM18.2695 26.9761C19.5462 26.9761 20.1846 26.2033 20.1846 24.6578V11.823C20.1846 10.2774 19.5462 9.50467 18.2695 9.50467C16.9927 9.50467 16.3543 10.2774 16.3543 11.823V24.6578C16.3543 26.2033 16.9927 26.9761 18.2695 26.9761ZM26.3799 6.48077H31.8565C33.7605 6.48077 35.1492 6.92875 36.0228 7.82473C36.8964 8.6983 37.3332 10.0535 37.3332 11.8902V13.3349C37.3332 15.7765 36.5268 17.322 34.914 17.9716V18.0388C35.81 18.3076 36.4372 18.8564 36.7956 19.6851C37.1764 20.5139 37.3668 21.6227 37.3668 23.0114V27.1441C37.3668 27.8161 37.3892 28.3649 37.434 28.7904C37.4788 29.1936 37.5908 29.5968 37.7699 30H34.0069C33.8725 29.6192 33.7829 29.2608 33.7381 28.9248C33.6933 28.5888 33.6709 27.9841 33.6709 27.1105V22.8098C33.6709 21.7347 33.4917 20.9843 33.1333 20.5587C32.7973 20.1331 32.2037 19.9203 31.3526 19.9203H30.0758V30H26.3799V6.48077ZM31.4198 16.5604C32.1589 16.5604 32.7077 16.37 33.0661 15.9893C33.4469 15.6085 33.6373 14.9701 33.6373 14.0741V12.2598C33.6373 11.4086 33.4805 10.7926 33.1669 10.4118C32.8757 10.0311 32.4053 9.84066 31.7557 9.84066H30.0758V16.5604H31.4198ZM39.931 6.48077H45.5085C47.4124 6.48077 48.8012 6.92875 49.6747 7.82473C50.5483 8.6983 50.9851 10.0535 50.9851 11.8902V12.831C50.9851 14.0405 50.7835 15.0261 50.3803 15.7877C49.9995 16.5492 49.4059 17.098 48.5996 17.434V17.5012C50.4363 18.1284 51.3547 19.7635 51.3547 22.4066V24.4226C51.3547 26.2369 50.8731 27.6257 49.9099 28.5888C48.9691 29.5296 47.5804 30 45.7437 30H39.931V6.48077ZM45.0717 16.0565C45.8108 16.0565 46.3596 15.8661 46.718 15.4853C47.0988 15.1045 47.2892 14.4661 47.2892 13.5701V12.2598C47.2892 11.4086 47.1324 10.7926 46.8188 10.4118C46.5276 10.0311 46.0572 9.84066 45.4077 9.84066H43.6269V16.0565H45.0717ZM45.7437 26.6401C46.3932 26.6401 46.8748 26.4721 47.1884 26.1361C47.502 25.7777 47.6588 25.173 47.6588 24.3218V22.2723C47.6588 21.1971 47.4684 20.4579 47.0876 20.0547C46.7292 19.6291 46.1244 19.4163 45.2733 19.4163H43.6269V26.6401H45.7437ZM56.3709 6.48077H61.3771L65.2074 30H61.5115L60.8395 25.3298V25.397H56.6397L55.9677 30H52.5406L56.3709 6.48077ZM60.4027 22.2051L58.7564 10.5798H58.6892L57.0765 22.2051H60.4027ZM71.7067 30.336C69.9147 30.336 68.5596 29.832 67.6412 28.824C66.7228 27.7937 66.2637 26.3265 66.2637 24.4226V23.0786H69.7579V24.6914C69.7579 26.2145 70.3963 26.9761 71.6731 26.9761C72.3003 26.9761 72.7706 26.7969 73.0842 26.4385C73.4202 26.0577 73.5882 25.4529 73.5882 24.6242C73.5882 23.6386 73.3642 22.7762 72.9162 22.0371C72.4682 21.2755 71.6395 20.3683 70.4299 19.3155C68.9068 17.9716 67.8428 16.762 67.238 15.6869C66.6332 14.5893 66.3308 13.3573 66.3308 11.991C66.3308 10.1319 66.8012 8.6983 67.742 7.69033C68.6828 6.65996 70.0491 6.14478 71.8411 6.14478C73.6106 6.14478 74.9434 6.65996 75.8393 7.69033C76.7577 8.6983 77.2169 10.1542 77.2169 12.0582V13.0326H73.7226V11.823C73.7226 11.0166 73.5658 10.4342 73.2522 10.0759C72.9386 9.69506 72.4794 9.50467 71.8747 9.50467C70.6427 9.50467 70.0267 10.255 70.0267 11.7558C70.0267 12.607 70.2507 13.4021 70.6987 14.1413C71.1691 14.8805 72.0091 15.7765 73.2186 16.8292C74.7642 18.1732 75.8281 19.3939 76.4105 20.4915C76.9929 21.5891 77.2841 22.877 77.2841 24.3554C77.2841 26.2817 76.8025 27.7601 75.8393 28.7904C74.8986 29.8208 73.521 30.336 71.7067 30.336ZM79.4032 6.48077H89.4829V9.84066H83.0991V16.0565H88.1725V19.4163H83.0991V26.6401H89.4829V30H79.4032V6.48077Z" fill="white"/>
<path d="M114.262 14.6452C113.523 14.6452 112.855 14.4697 112.258 14.1188C111.668 13.7679 111.205 13.2863 110.869 12.6741C110.533 12.0618 110.365 11.3749 110.365 10.6133C110.365 9.85176 110.533 9.16485 110.869 8.5526C111.205 7.94035 111.668 7.45877 112.258 7.10785C112.855 6.75692 113.523 6.58146 114.262 6.58146C115.002 6.58146 115.666 6.75692 116.256 7.10785C116.853 7.45877 117.32 7.94035 117.656 8.5526C117.992 9.16485 118.16 9.85176 118.16 10.6133C118.16 11.3749 117.992 12.0618 117.656 12.6741C117.32 13.2863 116.853 13.7679 116.256 14.1188C115.666 14.4697 115.002 14.6452 114.262 14.6452ZM114.262 13.8612C114.852 13.8612 115.382 13.7231 115.853 13.4468C116.323 13.1706 116.689 12.7861 116.95 12.2933C117.219 11.793 117.354 11.233 117.354 10.6133C117.354 9.99362 117.219 9.43737 116.95 8.94459C116.689 8.44434 116.323 8.05608 115.853 7.77982C115.382 7.50357 114.852 7.36544 114.262 7.36544C113.673 7.36544 113.143 7.50357 112.672 7.77982C112.202 8.05608 111.832 8.44434 111.563 8.94459C111.302 9.43737 111.171 9.99362 111.171 10.6133C111.171 11.233 111.302 11.793 111.563 12.2933C111.832 12.7861 112.202 13.1706 112.672 13.4468C113.143 13.7231 113.673 13.8612 114.262 13.8612ZM113.031 8.21661H114.33C114.763 8.21661 115.08 8.32114 115.282 8.5302C115.491 8.73179 115.595 9.04538 115.595 9.47097V9.57177C115.595 10.0944 115.401 10.4416 115.013 10.6133V10.6357C115.222 10.7253 115.371 10.8635 115.461 11.0501C115.55 11.2368 115.595 11.4794 115.595 11.7781V12.3493C115.595 12.6405 115.629 12.8607 115.696 13.0101H114.822C114.793 12.9279 114.77 12.8495 114.755 12.7749C114.748 12.6927 114.744 12.5471 114.744 12.3381V11.7669C114.744 11.513 114.699 11.3338 114.61 11.2293C114.52 11.1248 114.374 11.0725 114.173 11.0725H113.882V13.0101H113.031V8.21661ZM114.229 10.2885C114.393 10.2885 114.52 10.2475 114.61 10.1653C114.699 10.0757 114.744 9.92642 114.744 9.71736V9.57177C114.744 9.37764 114.707 9.23578 114.632 9.14618C114.565 9.04912 114.449 9.00058 114.285 9.00058H113.882V10.2885H114.229Z" fill="white"/>
</svg>
