<svg width="408" height="44" viewBox="0 0 408 44" fill="none" xmlns="http://www.w3.org/2000/svg">
<rect width="408" height="43.59" rx="21.795" fill="white"/>
<path d="M17.118 26V16.77H19.042L21.785 24.349L24.528 16.77H26.452V26H25.048V19.24L22.565 25.987H21.005L18.522 19.24V26H17.118ZM30.9805 26.156C30.3045 26.156 29.7195 26.0087 29.2255 25.714C28.7401 25.4193 28.3631 24.999 28.0945 24.453C27.8345 23.907 27.7045 23.27 27.7045 22.542C27.7045 21.814 27.8345 21.1813 28.0945 20.644C28.3631 20.098 28.7401 19.6777 29.2255 19.383C29.7108 19.0797 30.2828 18.928 30.9415 18.928C31.5655 18.928 32.1158 19.0753 32.5925 19.37C33.0691 19.656 33.4375 20.072 33.6975 20.618C33.9661 21.164 34.1005 21.8227 34.1005 22.594V22.945H29.1345C29.1691 23.621 29.3468 24.128 29.6675 24.466C29.9968 24.804 30.4388 24.973 30.9935 24.973C31.4008 24.973 31.7388 24.8777 32.0075 24.687C32.2761 24.4963 32.4625 24.2407 32.5665 23.92L33.9965 24.011C33.8145 24.6523 33.4548 25.1723 32.9175 25.571C32.3888 25.961 31.7431 26.156 30.9805 26.156ZM29.1345 21.905H32.6445C32.6011 21.2897 32.4235 20.8347 32.1115 20.54C31.8081 20.2453 31.4181 20.098 30.9415 20.098C30.4475 20.098 30.0401 20.254 29.7195 20.566C29.4075 20.8693 29.2125 21.3157 29.1345 21.905ZM37.8818 26.156C37.2318 26.156 36.6814 26.0563 36.2308 25.857C35.7888 25.6577 35.4464 25.3847 35.2038 25.038C34.9611 24.6827 34.8224 24.2753 34.7878 23.816L36.2048 23.751C36.2741 24.1323 36.4388 24.4357 36.6988 24.661C36.9588 24.8863 37.3531 24.999 37.8818 24.999C38.3151 24.999 38.6574 24.9297 38.9088 24.791C39.1601 24.6523 39.2858 24.4313 39.2858 24.128C39.2858 23.9633 39.2424 23.8247 39.1558 23.712C39.0778 23.5907 38.9218 23.491 38.6878 23.413C38.4538 23.3263 38.1071 23.244 37.6478 23.166C36.9631 23.036 36.4258 22.8843 36.0358 22.711C35.6458 22.5377 35.3684 22.3167 35.2038 22.048C35.0391 21.7793 34.9568 21.4543 34.9568 21.073C34.9568 20.4403 35.1908 19.9247 35.6588 19.526C36.1354 19.1273 36.8201 18.928 37.7128 18.928C38.3108 18.928 38.8134 19.032 39.2208 19.24C39.6281 19.4393 39.9444 19.7123 40.1698 20.059C40.4038 20.397 40.5511 20.7783 40.6118 21.203L39.1948 21.281C39.1514 21.0383 39.0648 20.8303 38.9348 20.657C38.8134 20.475 38.6488 20.3363 38.4408 20.241C38.2328 20.137 37.9858 20.085 37.6998 20.085C37.2578 20.085 36.9284 20.1717 36.7118 20.345C36.4951 20.5183 36.3868 20.7437 36.3868 21.021C36.3868 21.229 36.4344 21.398 36.5298 21.528C36.6338 21.658 36.7984 21.7663 37.0238 21.853C37.2491 21.931 37.5481 22.0003 37.9208 22.061C38.6401 22.1823 39.2034 22.334 39.6108 22.516C40.0181 22.6893 40.3041 22.906 40.4688 23.166C40.6334 23.426 40.7158 23.7423 40.7158 24.115C40.7158 24.5483 40.5944 24.9167 40.3518 25.22C40.1091 25.5233 39.7754 25.7573 39.3508 25.922C38.9261 26.078 38.4364 26.156 37.8818 26.156ZM44.4953 26.156C43.8453 26.156 43.295 26.0563 42.8443 25.857C42.4023 25.6577 42.06 25.3847 41.8173 25.038C41.5746 24.6827 41.436 24.2753 41.4013 23.816L42.8183 23.751C42.8876 24.1323 43.0523 24.4357 43.3123 24.661C43.5723 24.8863 43.9666 24.999 44.4953 24.999C44.9286 24.999 45.271 24.9297 45.5223 24.791C45.7736 24.6523 45.8993 24.4313 45.8993 24.128C45.8993 23.9633 45.856 23.8247 45.7693 23.712C45.6913 23.5907 45.5353 23.491 45.3013 23.413C45.0673 23.3263 44.7206 23.244 44.2613 23.166C43.5766 23.036 43.0393 22.8843 42.6493 22.711C42.2593 22.5377 41.982 22.3167 41.8173 22.048C41.6526 21.7793 41.5703 21.4543 41.5703 21.073C41.5703 20.4403 41.8043 19.9247 42.2723 19.526C42.749 19.1273 43.4336 18.928 44.3263 18.928C44.9243 18.928 45.427 19.032 45.8343 19.24C46.2416 19.4393 46.558 19.7123 46.7833 20.059C47.0173 20.397 47.1646 20.7783 47.2253 21.203L45.8083 21.281C45.765 21.0383 45.6783 20.8303 45.5483 20.657C45.427 20.475 45.2623 20.3363 45.0543 20.241C44.8463 20.137 44.5993 20.085 44.3133 20.085C43.8713 20.085 43.542 20.1717 43.3253 20.345C43.1086 20.5183 43.0003 20.7437 43.0003 21.021C43.0003 21.229 43.048 21.398 43.1433 21.528C43.2473 21.658 43.412 21.7663 43.6373 21.853C43.8626 21.931 44.1616 22.0003 44.5343 22.061C45.2536 22.1823 45.817 22.334 46.2243 22.516C46.6316 22.6893 46.9176 22.906 47.0823 23.166C47.247 23.426 47.3293 23.7423 47.3293 24.115C47.3293 24.5483 47.208 24.9167 46.9653 25.22C46.7226 25.5233 46.389 25.7573 45.9643 25.922C45.5396 26.078 45.05 26.156 44.4953 26.156ZM50.5205 26.156C49.8012 26.156 49.2248 25.9913 48.7915 25.662C48.3668 25.3327 48.1545 24.869 48.1545 24.271C48.1545 23.673 48.3322 23.2093 48.6875 22.88C49.0515 22.542 49.6105 22.2993 50.3645 22.152L52.7435 21.697C52.7435 21.1597 52.6178 20.761 52.3665 20.501C52.1152 20.2323 51.7425 20.098 51.2485 20.098C50.8065 20.098 50.4598 20.1977 50.2085 20.397C49.9572 20.5877 49.7838 20.8737 49.6885 21.255L48.2715 21.164C48.4015 20.4707 48.7222 19.9247 49.2335 19.526C49.7535 19.1273 50.4252 18.928 51.2485 18.928C52.1845 18.928 52.8952 19.1793 53.3805 19.682C53.8745 20.176 54.1215 20.8737 54.1215 21.775V24.466C54.1215 24.6307 54.1475 24.7477 54.1995 24.817C54.2602 24.8777 54.3555 24.908 54.4855 24.908H54.7325V26C54.6892 26.0087 54.6198 26.0173 54.5245 26.026C54.4292 26.0347 54.3295 26.039 54.2255 26.039C53.9308 26.039 53.6752 25.9913 53.4585 25.896C53.2505 25.8007 53.0945 25.6447 52.9905 25.428C52.8865 25.2027 52.8345 24.9037 52.8345 24.531L52.9775 24.596C52.9082 24.8993 52.7565 25.168 52.5225 25.402C52.2972 25.636 52.0068 25.8223 51.6515 25.961C51.3048 26.091 50.9278 26.156 50.5205 26.156ZM50.7415 25.064C51.1575 25.064 51.5128 24.986 51.8075 24.83C52.1022 24.6653 52.3318 24.44 52.4965 24.154C52.6612 23.868 52.7435 23.543 52.7435 23.179V22.737L50.7155 23.127C50.2995 23.205 50.0048 23.3307 49.8315 23.504C49.6668 23.6687 49.5845 23.881 49.5845 24.141C49.5845 24.4357 49.6842 24.6653 49.8835 24.83C50.0915 24.986 50.3775 25.064 50.7415 25.064ZM58.3472 28.106C57.8012 28.106 57.3202 28.0237 56.9042 27.859C56.4882 27.6943 56.1459 27.4603 55.8772 27.157C55.6086 26.8623 55.4266 26.5157 55.3312 26.117L56.7612 26.026C56.8566 26.312 57.0212 26.5373 57.2552 26.702C57.4979 26.8753 57.8619 26.962 58.3472 26.962C58.9192 26.962 59.3569 26.8407 59.6602 26.598C59.9722 26.3553 60.1282 25.987 60.1282 25.493V24.492C59.9636 24.8473 59.6992 25.129 59.3352 25.337C58.9712 25.545 58.5639 25.649 58.1132 25.649C57.5326 25.649 57.0169 25.506 56.5662 25.22C56.1156 24.934 55.7646 24.5397 55.5132 24.037C55.2619 23.5343 55.1362 22.9537 55.1362 22.295C55.1362 21.6277 55.2576 21.0427 55.5002 20.54C55.7516 20.0373 56.0982 19.643 56.5402 19.357C56.9909 19.071 57.4979 18.928 58.0612 18.928C58.5552 18.928 58.9886 19.0407 59.3612 19.266C59.7426 19.4913 60.0156 19.7947 60.1802 20.176V19.084H61.5062V25.454C61.5062 26.026 61.3762 26.507 61.1162 26.897C60.8649 27.2957 60.5009 27.5947 60.0242 27.794C59.5562 28.002 58.9972 28.106 58.3472 28.106ZM58.3342 24.479C58.8716 24.479 59.3006 24.284 59.6212 23.894C59.9506 23.504 60.1196 22.9667 60.1282 22.282C60.1369 21.8313 60.0676 21.4457 59.9202 21.125C59.7729 20.7957 59.5606 20.5443 59.2832 20.371C59.0146 20.189 58.6982 20.098 58.3342 20.098C57.7709 20.098 57.3332 20.2973 57.0212 20.696C56.7179 21.086 56.5662 21.6147 56.5662 22.282C56.5662 22.958 56.7222 23.4953 57.0342 23.894C57.3549 24.284 57.7882 24.479 58.3342 24.479ZM65.9018 26.156C65.2258 26.156 64.6408 26.0087 64.1468 25.714C63.6614 25.4193 63.2844 24.999 63.0158 24.453C62.7558 23.907 62.6258 23.27 62.6258 22.542C62.6258 21.814 62.7558 21.1813 63.0158 20.644C63.2844 20.098 63.6614 19.6777 64.1468 19.383C64.6321 19.0797 65.2041 18.928 65.8628 18.928C66.4868 18.928 67.0371 19.0753 67.5138 19.37C67.9904 19.656 68.3588 20.072 68.6188 20.618C68.8874 21.164 69.0218 21.8227 69.0218 22.594V22.945H64.0558C64.0904 23.621 64.2681 24.128 64.5888 24.466C64.9181 24.804 65.3601 24.973 65.9148 24.973C66.3221 24.973 66.6601 24.8777 66.9288 24.687C67.1974 24.4963 67.3838 24.2407 67.4878 23.92L68.9178 24.011C68.7358 24.6523 68.3761 25.1723 67.8388 25.571C67.3101 25.961 66.6644 26.156 65.9018 26.156ZM64.0558 21.905H67.5658C67.5224 21.2897 67.3448 20.8347 67.0328 20.54C66.7294 20.2453 66.3394 20.098 65.8628 20.098C65.3688 20.098 64.9614 20.254 64.6408 20.566C64.3288 20.8693 64.1338 21.3157 64.0558 21.905Z" fill="#F44930"/>
<g clip-path="url(#clip0_1_209)">
<path d="M316.126 21.6643V20.1399C316.126 19.9844 316.18 19.8522 316.291 19.7421C316.395 19.6341 316.539 19.5745 316.689 19.5766C316.841 19.5735 316.988 19.6331 317.095 19.7421C317.202 19.8461 317.261 19.9895 317.259 20.1399V21.6198C317.259 22.4709 317.435 23.2169 317.785 23.858C318.126 24.4879 318.638 25.0068 319.265 25.3531C319.901 25.7034 320.647 25.878 321.503 25.878C322.36 25.878 323.104 25.7034 323.735 25.3531C324.36 25.0068 324.874 24.4879 325.215 23.858C325.565 23.2169 325.74 22.4709 325.74 21.6198V20.1399C325.74 19.9844 325.795 19.8522 325.906 19.7421C326.012 19.6331 326.158 19.5735 326.311 19.5766C326.466 19.5766 326.599 19.6321 326.71 19.7421C326.817 19.8461 326.876 19.9895 326.874 20.1399V21.6643C326.874 22.6465 326.671 23.5178 326.266 24.2779C325.877 25.027 325.296 25.66 324.584 26.1112C323.862 26.5675 323.024 26.8341 322.067 26.9148V28.6653H324.853C325.015 28.6653 325.15 28.7199 325.26 28.8299C325.368 28.9369 325.429 29.0843 325.424 29.2367C325.428 29.3861 325.367 29.5305 325.26 29.6345C325.153 29.7425 325.007 29.8031 324.854 29.799H318.146C317.993 29.8031 317.846 29.7425 317.739 29.6345C317.632 29.5295 317.572 29.3861 317.574 29.2367C317.574 29.0752 317.63 28.9409 317.739 28.8299C317.846 28.7219 317.993 28.6613 318.146 28.6653H320.932V26.9148C319.975 26.8351 319.137 26.5675 318.415 26.1112C317.703 25.658 317.12 25.026 316.727 24.2779C316.328 23.5168 316.127 22.6465 316.127 21.6643H316.126ZM321.503 24.2638C321.003 24.2638 320.566 24.1487 320.189 23.9175C319.814 23.6874 319.509 23.3572 319.31 22.9635C319.1 22.5527 318.995 22.0802 318.995 21.5451V16.5187C318.995 15.9837 319.1 15.5132 319.31 15.1074C319.508 14.7117 319.813 14.3785 320.189 14.1463C320.565 13.9151 321.003 13.8 321.503 13.8C322 13.8 322.434 13.9151 322.811 14.1463C323.191 14.3765 323.484 14.6965 323.69 15.1074C323.9 15.5132 324.005 15.9837 324.005 16.5187V21.5451C324.005 22.0802 323.9 22.5527 323.69 22.9635C323.494 23.3593 323.188 23.6904 322.811 23.9175C322.435 24.1487 322 24.2638 321.503 24.2638Z" fill="#F44930"/>
</g>
<g clip-path="url(#clip1_1_209)">
<path d="M348.702 23.5441C349.155 23.5501 349.589 23.3663 349.9 23.0384C350.224 22.7183 350.405 22.2797 350.398 21.8244C350.398 21.5181 350.321 21.2376 350.165 20.9798C350.02 20.722 349.81 20.5056 349.555 20.3525C349.298 20.1975 349.002 20.1165 348.702 20.1204C348.248 20.1125 347.81 20.2962 347.497 20.6262C347.164 20.964 346.998 21.364 346.998 21.8244C346.998 22.2955 347.164 22.7005 347.497 23.0384C347.829 23.3752 348.231 23.5441 348.702 23.5441ZM345.512 28.6501H356.451C356.849 28.6501 357.157 28.5424 357.376 28.328C357.596 28.1186 357.706 27.8055 357.706 27.3867V26.2053L354.699 23.3683C354.551 23.228 354.376 23.1184 354.184 23.0463C353.819 22.8981 353.411 22.8951 353.044 23.0384C352.853 23.1105 352.678 23.2201 352.529 23.3594L349.281 26.2379L347.987 25.0723C347.848 24.9379 347.685 24.8312 347.505 24.7581C347.347 24.6949 347.177 24.6623 347.006 24.6623C346.85 24.6623 346.696 24.6969 346.54 24.767C346.374 24.8411 346.22 24.9379 346.082 25.0555L344.265 26.6557V27.3867C344.265 27.8055 344.372 28.1186 344.586 28.328C344.8 28.5414 345.109 28.6491 345.512 28.6491V28.6501ZM345.495 29.9431C344.653 29.9431 344.021 29.7347 343.597 29.3158C343.18 28.9039 342.971 28.2826 342.971 27.4519V19.8705C342.971 19.0398 343.18 18.4184 343.597 18.0055C344.021 17.5877 344.653 17.3783 345.495 17.3783H356.476C357.312 17.3783 357.941 17.5877 358.365 18.0055C358.788 18.4244 359 19.0457 359 19.8705V27.4519C359 28.2826 358.788 28.9039 358.365 29.3158C357.942 29.7347 357.311 29.9431 356.476 29.9431H345.495ZM345.495 16.2858C344.729 16.2858 344.075 16.428 343.533 16.7115C343.006 16.9832 342.573 17.4089 342.295 17.9334C342.011 18.4698 341.87 19.1158 341.87 19.8705V26.2211H341.524C340.682 26.2211 340.05 26.0156 339.626 25.6017C339.208 25.1839 339 24.5606 339 23.7298V16.1494C339 15.3177 339.208 14.6964 339.626 14.2835C340.05 13.8666 340.682 13.6572 341.524 13.6572H352.505C353.341 13.6572 353.97 13.8666 354.394 14.2835C354.818 14.7023 355.029 15.3236 355.029 16.1494V16.2858H345.495Z" fill="#F44930"/>
</g>
<g clip-path="url(#clip2_1_209)">
<path d="M373.685 29.9531C372.789 29.9531 372.118 29.7309 371.667 29.2857C371.222 28.8484 371 28.186 371 27.3024V18.3499C371 17.4723 371.222 16.8139 371.667 16.3747C372.118 15.9304 372.789 15.7082 373.685 15.7082H376.071C376.407 15.7082 376.656 15.6672 376.816 15.5882C376.975 15.5021 377.148 15.354 377.336 15.1429L378.02 14.3734C378.237 14.1403 378.471 13.9602 378.722 13.8351C378.978 13.71 379.325 13.647 379.765 13.647H383.177C383.615 13.647 383.963 13.71 384.219 13.8351C384.475 13.9602 384.709 14.1403 384.921 14.3734L385.604 15.1439C385.735 15.286 385.852 15.4001 385.954 15.4861C386.063 15.5642 386.186 15.6222 386.322 15.6562C386.46 15.6912 386.642 15.7082 386.87 15.7082H389.315C390.204 15.7082 390.874 15.9294 391.325 16.3747C391.775 16.8139 392 17.4723 392 18.3499V27.3024C392 28.185 391.775 28.8464 391.325 29.2847C390.874 29.7299 390.204 29.9521 389.315 29.9521L373.685 29.9531ZM381.499 27.4315C382.144 27.4315 382.748 27.3104 383.312 27.0723C385.048 26.3418 386.171 24.6368 386.159 22.7536C386.159 21.8871 385.951 21.1006 385.535 20.3941C385.128 19.6967 384.547 19.1164 383.85 18.7091C383.138 18.2918 382.325 18.0757 381.499 18.0847C380.259 18.0747 379.065 18.565 378.189 19.4446C377.767 19.8748 377.428 20.3791 377.19 20.9335C376.949 21.5098 376.827 22.1292 376.831 22.7546C376.831 23.409 376.951 24.0194 377.19 24.5847C377.435 25.1481 377.768 25.6434 378.19 26.0717C379.066 26.9512 380.259 27.4415 381.499 27.4315ZM381.499 26.1317C380.878 26.1317 380.312 25.9796 379.798 25.6774C379.296 25.3812 378.876 24.964 378.575 24.4647C378.272 23.9453 378.115 23.354 378.122 22.7536C378.122 22.1322 378.274 21.5679 378.575 21.0606C378.874 20.5573 379.294 20.137 379.798 19.8378C380.312 19.5296 380.901 19.3705 381.499 19.3765C382.121 19.3765 382.685 19.5306 383.193 19.8378C383.699 20.133 384.12 20.5542 384.415 21.0606C384.718 21.5729 384.876 22.1582 384.869 22.7536C384.876 23.354 384.718 23.9453 384.415 24.4647C384.118 24.966 383.697 25.3842 383.193 25.6774C382.68 25.9816 382.095 26.1387 381.499 26.1317ZM386.733 19.6077C386.728 19.9018 386.845 20.186 387.055 20.3931C387.264 20.5993 387.55 20.7113 387.844 20.7023C388.135 20.7023 388.388 20.5973 388.605 20.3851C388.827 20.175 388.938 19.9149 388.938 19.6077C388.938 19.3175 388.827 19.0633 388.605 18.8462C388.41 18.6331 388.133 18.512 387.843 18.513C387.547 18.511 387.262 18.6311 387.057 18.8462C386.849 19.0443 386.731 19.3195 386.733 19.6077Z" fill="#F44930"/>
</g>
<defs>
<clipPath id="clip0_1_209">
<rect width="11" height="16" fill="white" transform="translate(316 13.8)"/>
</clipPath>
<clipPath id="clip1_1_209">
<rect width="20" height="17" fill="white" transform="translate(339 13.3)"/>
</clipPath>
<clipPath id="clip2_1_209">
<rect width="21" height="17" fill="white" transform="translate(371 13.3)"/>
</clipPath>
</defs>
</svg>
