<svg width="81" height="81" viewBox="0 0 81 81" fill="none" xmlns="http://www.w3.org/2000/svg">
<g clip-path="url(#clip0_1_448)">
<g clip-path="url(#clip1_1_448)">
<g clip-path="url(#clip2_1_448)">
<path d="M60.3965 50.3995C59.8781 51.3898 59.5622 52.4731 59.466 53.5869C59.3698 54.6996 59.4964 55.8215 59.8386 56.8856C60.1808 57.9497 60.7306 58.9349 61.4566 59.7844C62.1835 60.6339 63.0715 61.3305 64.0698 61.8337C65.0671 62.3369 66.1556 62.6356 67.2703 62.7146C68.3861 62.7925 69.5049 62.6488 70.564 62.2903C71.6221 61.9319 72.5991 61.3659 73.4375 60.6268C74.2748 59.8867 74.9572 58.9876 75.4442 57.9821C76.4092 55.9916 76.5519 53.7013 75.8422 51.6064C75.1324 49.5116 73.6278 47.7792 71.6524 46.7839C69.6781 45.7886 67.3898 45.6094 65.2838 46.2857C63.1788 46.9631 61.4231 48.4403 60.3965 50.3995ZM19.3345 63.9599C18.8161 64.9502 18.4992 66.0335 18.403 67.1473C18.3079 68.261 18.4344 69.3819 18.7756 70.446C19.1179 71.5102 19.6676 72.4963 20.3946 73.3458C21.1206 74.1953 22.0085 74.8919 23.0069 75.3941C24.0052 75.8973 25.0936 76.197 26.2084 76.275C27.3232 76.3529 28.443 76.2092 29.501 75.8507C30.5601 75.4923 31.5362 74.9263 32.3745 74.1872C33.2129 73.4471 33.8953 72.548 34.3823 71.5426C35.3462 69.552 35.489 67.2617 34.7792 65.1668C34.0705 63.072 32.5659 61.3396 30.5905 60.3443C28.6151 59.349 26.3279 59.1708 24.2219 59.8472C22.1159 60.5235 20.3602 62.0008 19.3345 63.9599ZM4.05895 46.223C3.54055 47.2132 3.22363 48.2966 3.12846 49.4103C3.03227 50.5241 3.15883 51.6449 3.50106 52.709C3.84227 53.7732 4.39307 54.7594 5.11903 55.6088C5.845 56.4583 6.73296 57.1549 7.73128 57.6581C8.72961 58.1603 9.81805 58.46 10.9328 58.538C12.0476 58.617 13.1674 58.4722 14.2255 58.1138C15.2845 57.7553 16.2616 57.1894 17.0989 56.4502C17.9373 55.7101 18.6197 54.812 19.1067 53.8056C20.0706 51.815 20.2134 49.5247 19.5046 47.4299C18.7949 45.335 17.2903 43.6026 15.3149 42.6073C13.3395 41.612 11.0523 41.4338 8.94628 42.1102C6.84028 42.7865 5.08562 44.2638 4.05895 46.223ZM5.79842 22.8889C5.28002 23.8781 4.96311 24.9615 4.86692 26.0752C4.77175 27.189 4.89831 28.3108 5.23952 29.375C5.58175 30.4391 6.13153 31.4243 6.85851 32.2738C7.58447 33.1232 8.47243 33.8198 9.47076 34.3231C10.4691 34.8263 11.5575 35.125 12.6723 35.2039C13.787 35.2819 14.9069 35.1371 15.9649 34.7787C17.024 34.4203 18.0011 33.8553 18.8384 33.1151C19.6768 32.376 20.3592 31.4769 20.8462 30.4705C21.8101 28.4799 21.9529 26.1907 21.2441 24.0958C20.5343 21.9999 19.0298 20.2685 17.0544 19.2733C15.079 18.278 12.7918 18.0988 10.6858 18.7751C8.57976 19.4515 6.82408 20.9287 5.79842 22.8889ZM23.4989 7.60419C22.9978 8.59239 22.696 9.67071 22.611 10.7764C22.5269 11.882 22.6616 12.9927 23.0069 14.0457C23.3531 15.0997 23.9029 16.0738 24.6269 16.9141C25.3498 17.7545 26.2317 18.444 27.2219 18.9422C28.2121 19.4413 29.2904 19.74 30.3961 19.821C31.5017 19.902 32.6125 19.7643 33.6655 19.415C34.7174 19.0667 35.6905 18.5139 36.5288 17.7879C37.3661 17.062 38.0536 16.178 38.5487 15.1868C39.5471 13.1922 39.7131 10.8827 39.0115 8.76553C38.3088 6.64839 36.7961 4.89576 34.8045 3.89237C32.8119 2.88898 30.5034 2.71584 28.3843 3.41143C26.2651 4.10803 24.5084 5.61564 23.4989 7.60419ZM46.8604 9.34569C46.342 10.3359 46.0261 11.4193 45.9299 12.533C45.8337 13.6468 45.9602 14.7676 46.3025 15.8318C46.6447 16.8959 47.1945 17.8821 47.9204 18.7316C48.6474 19.5811 49.5354 20.2777 50.5337 20.7799C51.532 21.2831 52.6195 21.5828 53.7342 21.6607C54.85 21.7387 55.9688 21.5949 57.0279 21.2365C58.0859 20.8781 59.063 20.3121 59.9014 19.573C60.7387 18.8328 61.4211 17.9337 61.9091 16.9283C62.873 14.9377 63.0158 12.6475 62.306 10.5526C61.5973 8.45773 60.0917 6.72534 58.1173 5.73006C56.1419 4.73477 53.8537 4.55657 51.7487 5.23292C49.6427 5.90927 47.887 7.38651 46.8604 9.34569ZM62.1359 27.0715C61.6348 28.0597 61.333 29.138 61.248 30.2427C61.1639 31.3483 61.2986 32.4601 61.6439 33.5131C61.9901 34.5661 62.5399 35.5411 63.2639 36.3815C63.9868 37.2218 64.8687 37.9103 65.8589 38.4095C66.8491 38.9087 67.9274 39.2074 69.0331 39.2884C70.1387 39.3694 71.2495 39.2317 72.3014 38.8823C73.3544 38.534 74.3275 37.9802 75.1658 37.2553C76.0031 36.5293 76.6906 35.6454 77.1857 34.6541C78.1841 32.6585 78.3501 30.35 77.6485 28.2329C76.9458 26.1157 75.4331 24.3631 73.4415 23.3597C71.4489 22.3553 69.1404 22.1832 67.0213 22.8788C64.9021 23.5744 63.1454 25.082 62.1359 27.0715ZM45.3872 79.0421L59.7596 74.3006L55.0191 59.9282L40.6466 64.6687L45.3872 79.0421Z" stroke="#F44930" stroke-width="2.17125" stroke-miterlimit="10"/>
</g>
</g>
</g>
<defs>
<clipPath id="clip0_1_448">
<rect width="81" height="81" fill="white"/>
</clipPath>
<clipPath id="clip1_1_448">
<rect width="81" height="81" fill="white"/>
</clipPath>
<clipPath id="clip2_1_448">
<rect width="81" height="81" fill="white"/>
</clipPath>
</defs>
</svg>
